<svg width="59" height="59" viewBox="0 0 59 59" fill="none" xmlns="http://www.w3.org/2000/svg">
<path d="M54.7857 23.1786H35.8214V4.21429C35.8214 1.88721 33.9342 0 31.6071 0H27.3929C25.0658 0 23.1786 1.88721 23.1786 4.21429V23.1786H4.21429C1.88721 23.1786 0 25.0658 0 27.3929V31.6071C0 33.9342 1.88721 35.8214 4.21429 35.8214H23.1786V54.7857C23.1786 57.1128 25.0658 59 27.3929 59H31.6071C33.9342 59 35.8214 57.1128 35.8214 54.7857V35.8214H54.7857C57.1128 35.8214 59 33.9342 59 31.6071V27.3929C59 25.0658 57.1128 23.1786 54.7857 23.1786Z" fill="black"/>
</svg>
