<svg width="59" height="59" viewBox="0 0 59 59" fill="none" xmlns="http://www.w3.org/2000/svg">
<path d="M58.1976 51.0093L46.7079 39.5215C46.1893 39.003 45.4863 38.715 44.7488 38.715H42.8703C46.051 34.6476 47.941 29.5317 47.941 23.9664C47.941 10.7273 37.2119 0 23.9705 0C10.7291 0 0 10.7273 0 23.9664C0 37.2055 10.7291 47.9328 23.9705 47.9328C29.5367 47.9328 34.6535 46.0432 38.7216 42.863V44.7411C38.7216 45.4786 39.0097 46.1814 39.5283 46.6999L51.018 58.1877C52.1013 59.2708 53.853 59.2708 54.9247 58.1877L58.1861 54.9269C59.2694 53.8438 59.2694 52.0924 58.1976 51.0093ZM23.9705 38.715C15.8228 38.715 9.21942 32.1242 9.21942 23.9664C9.21942 15.8201 15.8113 9.21785 23.9705 9.21785C32.1182 9.21785 38.7216 15.8086 38.7216 23.9664C38.7216 32.1127 32.1297 38.715 23.9705 38.715Z" fill="black"/>
</svg>
